<svg xmlns="http://www.w3.org/2000/svg" viewBox="0 0 296.58 475.55"><defs><style>.cls-1,.cls-2{fill:#fff;}.cls-1{fill-rule:evenodd;}</style></defs><title>资源 3</title><g id="图层_2" data-name="图层 2"><g id="图层_1-2" data-name="图层 1"><path class="cls-1" d="M235.09,418.08h60.37l0,0h0l0,0h.05v0h0l0,0h0l0,0v0l0,0h0v0h0v.07l0,0V475h0v.12l0,0v.07l0,0v0h0l0,0h0l0,0h0l0,0h0v0h0l0,0h-.07l0,0H234.94l0,0h-.07v0h-.05v0h0v0h0v0h0v0h0l0,0v0l0,0v0l0,0v-56.5h0v-.09l0,0v-.05l0,0v0h0l0,0h0v0l0,0v0h0v0h0l0,0h0l0,0h0l0,0h.15Zm11.76,42.72h0l.29-.07.28-.05.29-.06.29-.07.27-.07.28-.07.27-.07.29-.07.27-.07.27-.08.28-.07.25-.09.28-.08.25-.08.27-.09.26-.08.26-.08.26-.1.25-.08.25-.1.25-.1.25-.1L253,459l.26-.1.24-.11.23-.1.24-.11.25-.1.23-.11.22-.11.25-.11.23-.13.23-.11.21-.11.23-.13.23-.12.21-.13.22-.12.21-.13.22-.12.21-.14.21-.13.2-.14.22-.14.2-.12.2-.15.2-.14.2-.14.2-.14.19-.16.2-.15.18-.14.2-.15.19-.15.18-.17.18-.15.18-.16.19-.16.17-.17.17-.16.17-.16.17-.18.18-.17.17-.17.17-.18.16-.17.15-.18.18-.18.15-.18.16-.18.14-.18.16-.18.16-.2.14-.19.14-.18.15-.2.14-.19.14-.2.15-.21.12-.19.15-.21.13-.2.13-.2.12-.21.13-.21.13-.21.13-.21.11-.22.13-.21.12-.22.11-.23.12-.22.11-.22.1-.23.12-.22.1-.23.11-.23.1-.23.1-.24.1-.24.1-.23.09-.24.1-.24.08-.25.09-.24.08-.25.09-.25.09-.25.08-.25.07-.25.09-.26.07-.25.07-.27.07-.26.07-.25.08-.27.05-.28.07-.26.06-.27.06-.27.06-.27,0-.28.06-.28.06-.27,0-.28.06-.28,0-.29,0-.28h0l0,0h1.34l.17,0h.46l.09,0h0l0,.58v1.13l0,.56v5.66l0,1.62v3.38l0,.36v.74h0v.2l0,.19v.78l0,.2v.19l0,.2v.18l0,.19v.2l0,.18,0,.18,0,.19,0,.19,0,.18-.05.18,0,.18-.05.17,0,.09v.09l0,.08,0,.1V457l0,.08,0,.09,0,.08,0,.09,0,.08,0,.08,0,.09,0,.08,0,.08,0,.09,0,.08,0,.07-.05.08,0,.09,0,.08,0,.07,0,.08-.05.07,0,.09,0,.07-.05.08-.05.07-.05.07,0,.08-.05.07-.05.07-.06.07,0,.07-.06.07-.06.07,0,.07-.08.07,0,.07-.06.07-.07.05-.06.07-.07.07-.07.06-.06.07-.07,0-.07.07-.09.06-.07.07-.07.06-.09,0-.07.06-.08.05-.09.06-.09.05-.08.06-.09.06-.08.05-.09,0-.1.06-.09.05-.1.05-.1.05-.1,0-.1.06-.1,0-.1,0-.11,0-.1.05-.11,0-.1,0-.12,0-.11,0-.13.05-.12,0-.11,0-.13.05-.13,0-.11,0-.13,0-.13,0-.14,0-.13,0-.13,0-.14,0-.15,0-.14,0-.14,0h-.15v4.48h0l.12,0h.86l.12,0h.6l.11,0h.24l.12,0h.23l.11,0H266l.12,0h.11l.11,0h.1l.12,0,.11,0,.12,0,.1,0,.11,0,.1,0,.12,0,.11,0,.1,0,.1,0,.12,0,.1,0,.11,0,.1,0,.1,0,.1-.05.12,0,.1,0,.1,0,.1-.05.1,0,.1,0,.1-.05.1,0,.1,0,.1,0,.1,0,.1-.05.08,0,.1-.05.1,0,.09-.05.1,0,.1,0,.08-.06.1-.06.09,0,.1,0,.09-.06.08-.05.1-.06.09-.06.08-.05.1-.06.09-.05.09-.07.08-.06.09,0,.08-.07.09-.06.08-.07.09-.07.09-.05.08-.07.09-.07.08-.07.08-.07.08-.07.09-.07.08-.07.07-.07.09-.08.07-.07.09-.07.07-.09.08-.07.08-.08.08-.08.07-.07.07-.09.09-.08.07-.08.07-.09.08-.08.07-.08.07-.09.07-.08.07-.1.07-.08.07-.1.08-.08.07-.1.07-.09.07-.09.07-.1.06-.08.07-.1.07-.1.06-.1.07-.09.06-.1.07-.1.06-.11.07-.1.06-.09.07-.12.05-.09.06-.12.07-.09.06-.11.06-.12,0-.11.06-.09.06-.12.07-.11.11-.23.1-.23.12-.23.11-.24.1-.24.1-.23.12-.25.1-.25.08-.26.1-.25.1-.26.09-.27.1-.26.09-.28.08-.26.09-.28.07-.28.09-.29.07-.29.08-.28.07-.31.08-.29.07-.31.05-.3.08-.31.05-.31.07-.32.06-.32.06-.32.06-.33,0-.32.06-.34,0-.34.06-.34,0-.35,0-.35.05-.34,0-.37.05-.34,0-.37,0-.36,0-.37,0-.38,0-.38,0-.37,0-.38v-.39l0-.39v-.39l0-.4v-.4l0-.41v-3.79l0-.43h1.55l1.57,0h3.19v-5.83l-6.51,0v-6h-8.11l0,5.92h-3l-1.5,0h-7.57l-1.53,0h-6.16l-1.55,0h-3.12l0,5.78h12.94l0,.2v.58l0,.18,0,.2V440l0,.2,0,.18,0,.19,0,.18,0,.19,0,.19,0,.18,0,.18,0,.18,0,.19,0,.18,0,.18,0,.18,0,.18,0,.18,0,.17,0,.18,0,.17,0,.18,0,.16-.05.18-.05.17-.05.17-.05.17,0,.16-.05.17-.06.17-.06.16-.06.17-.05.17-.06.15-.06.17-.06.15-.07.17-.05.15-.08.17-.07.15-.05.16-.08.15-.07.15-.07.16-.08.15-.08.15-.07.15-.08.16-.08.15-.08.14-.09.15-.07.14-.08.16-.09.13-.09.14-.1.16-.08.14-.09.14-.1.14-.08.13-.1.14-.1.14-.09.13-.1.14-.1.14-.11.12-.1.14-.1.13-.1.14-.12.12-.1.13-.11.12-.12.13-.11.12-.12.13-.11.12-.12.13-.11.12-.11.13-.13.11-.12.13-.13.11-.12.12-.12.11-.13.13-.13.11-.13.11-.12.11-.15.11-.13.12-.12.11-.15.11-.13.11-.14.11-.14.1-.15.11-.14.1-.14.11-.14.1-.15.11-.15.1-.15.09-.16.1-.14.1-.16.1-.15.09-.16.1-.16.1-.15.1-.16.08-.16.1-.16.09-.17.09-.16.08-.17.1-.17.08-.17.09-.16.08-.17.1-.19.08-.17.08-.17.07-.17.09-.19.08.16,4.47Zm-4.25-36.87h-.13v0h-.07l0,0h0v0h0l0,0h0v.05h0v0l0,0h0v0h0v44.1h0v0h0v0h0v0l0,0v0h0v0h0l0,0v0h0l0,0h0v0h0l0,0h.05l0,0H288l0,0h.07v0h.05v0h0l0,0h0l0,0v0h0l0,0h0v-.06h0v0h0v0h0v-44.1h0v0h0v0h0v-.05h0v0h-.05v0h0l0,0h-.06v0H242.6Z"/><path class="cls-1" d="M37.79,474.11l-.13-12.59H41l1.21,0h3.9l1.39,0h13l.11,0h.1l.11,0h.1l.12,0h.33l.11,0h.23l.23,0h.44l.23,0h.33l.12,0h.21l.1,0h.1l.11,0,.1,0,.1,0,.1,0,.1,0,.11,0,.1,0h0l0,0h0l.06,0,0,0h0l0,0,0,0h0l0,0,0,0,0,0,0,0,0,0,0,0,0,0,0,0,0,0,0,0,0,0,0,0,0,0,0,0,0,0,0,0,0-.05,0,0,0,0,0,0,0-.06,0,0,0,0,0-.06,0-.05,0-.06,0,0,0-.06,0-.07,0-.05,0-.06,0,0,0-.07,0-.07v-.13l0-.07,0-.07V459l0-.08v-.15l0-.07v-.09l0-.08v-.17l0-.09v-.09h0v-2l0-2v-12.2l0-2v-4.09l0-2.05v-4.11l0-1v-1l0-1v-1h0l0-.09,0-.09,0-.08,0-.08,0-.07,0-.09,0-.08,0-.07-.06-.07,0-.07-.06-.07-.06-.07,0-.07-.06-.07L65,424.4l-.06,0-.07-.06-.07-.07-.07-.06-.09-.05-.07-.06-.09-.05-.08,0-.09-.06-.08,0-.09-.06-.1,0-.1,0-.1,0-.1,0-.1,0-.1,0-.12-.05-.11,0-.11,0-.12,0-.11,0-.13,0h-.12l-.13,0-.12,0h-.13l-.13,0-.14,0-.15,0h-.14l-.14,0H61l-.16,0h-.65l-.16,0h-.7l-.19,0H59l-.19,0H38.09l0-.13,0-.14,0-.14,0-.14,0-.14v-.14l0-.12,0-.14v-.28l0-.14v-.14l0-.14v-.28l0-.13v-.85l0-.28v-3.41l0-.28v-.87l0-.27v-.42l0-.14v-.28l-8.36.14,0,8.12H21.08l-1,0H16.9l-1.08,0-1.12,0-1.14,0h-.22l-.11,0H13l-.11,0H10.77l-.22,0h-.4l-.41,0-.4,0h-.2l-.2,0H7.29l-.08,0H6.84l-.09,0h-.1l-.09,0H6.38l-.09,0H6.21l-.09,0-.09,0-.1,0-.08,0-.09,0-.08,0-.09,0-.08,0-.09,0-.09,0-.08,0-.07,0-.09,0-.08,0-.09,0-.07,0-.09,0-.08,0-.08.05-.08,0-.09.05-.07.05-.08.05-.08.06-.07.05-.08.06-.07,0-.08.06-.08.07-.07.07-.07.07-.08.07-.07.07-.07.07-.09.07-.07.08-.07.08-.06.09-.07.08-.07.08-.07.1-.07.09-.07.09-.06.1-.07.1-.07.1-.06.11-.07.11-.06.11-.07.11-.06.11-.06.11-.07.13,0,.12-.06.13h0v.95l0,1v2.2l0,1.17V450.2l0,3.86v3.59l0,.07v0h0v.17l0,.07,0,.08v.08l0,.07,0,.09,0,.07,0,.07v.07l0,.07,0,.07v.07l0,.07,0,.05,0,.07,0,.06,0,.07,0,.05,0,.06,0,0,0,.06,0,.05,0,.06,0,.06,0,0,0,0,.05.05,0,0,0,.05,0,0,0,.05,0,0,0,0,0,0,0,0,0,0,0,0,0,0,0,0,0,0,0,0,.05,0,0,0,0,0,.05,0,0,0,.06,0,0,0h0l.06,0,0,0,0,0H4l0,0h.06l0,0,.06,0,.1,0,.1,0,.12,0,.1,0,.11,0,.11,0H5l.11,0,.12,0h.47l.11,0H7.54l.24,0H28.92v13.28h4.58l1.09,0h3.19Zm-.13-19.66V429.62l19.26,0,0,24.87Zm-27.48-.63V429.4H29v24.42Z"/><path class="cls-1" d="M142.83,474.39l0-6.82h0v0h0v0h0l0,0h0l0,0,0,0h-.1l-.06,0h-.13l-.08,0h-.09l-.08,0H142l-.11,0h-.11l-.26,0-.27,0-.32,0-.33,0-.35,0-.38,0h0v-1l0-1V463l0-1.08V448.5l-60.71-.41,0,18.67h0l-.38,0-.36,0-.17,0-.17,0H78l-.15,0H77.7l-.14,0h-.14l-.13,0h-.12l-.13,0-.1,0-.11,0h-.1l-.09,0-.1,0-.08,0-.07,0-.08,0-.07,0,0,0h0l0,0,0,0,0,0h0l0,0,0,0,0,0,0,0h0l0,0h0l0,0v.07l0,6.75Zm-18.72-28.2L124,426.84h0l.07.19.07.2.07.19.07.2.07.19.09.18.07.2.07.19.09.18.08.19.08.18.08.18.09.18.08.18.09.18.08.18.09.18.1.17.09.18.1.17.08.18.1.17.1.16.09.17.1.17.1.16.1.17.1.17.11.15.1.17.1.15.12.17.1.15.11.16.1.16.12.16.11.15.12.15.11.14.11.15.12.16.11.15.13.14.12.15.11.14.13.14.11.16.13.13.13.14.13.14.11.14.13.14.13.14.15.13.12.14.13.12.13.14.14.13.13.13.15.13.12.12.15.13.13.13.14.12.14.13.15.12.14.13.14.12.14.11.15.13.15.11.15.13.14.11.16.12.14.11.16.12.14.11.16.11.16.11.15.11.16.11.16.11.16.1.15.11.16.1.16.11.15.1.18.11.15.1.16.1.17.11.16.09.17.1.17.1.16.1.17.09.17.09.18.09.17.1.17.1.17.08.17.1.17.08.19.1.17.09.17.08.19.08.17.1.19.08.17.09.18.08.18.08.18.09.19.08.18.07.19.08.18.09.19.07.19.08.18.07.19.08.18.07.19.09.19.07.2.07.18.07.2.08.19.07,1,.28,0-5.52h0l-.27-.18-.29-.19-.28-.18-.27-.2-.27-.19-.28-.2-.27-.19-.27-.21-.27-.2-.26-.19-.27-.21-.26-.21-.26-.21-.25-.19-.26-.23-.26-.2-.24-.21-.24-.23-.25-.21-.24-.22-.24-.22-.12-.11-.13-.11-.11-.12-.12-.11-.11-.11-.11-.12-.12-.11-.11-.12-.12-.11-.11-.12-.1-.11-.12-.13-.11-.11-.1-.13-.12-.11-.11-.12-.1-.11-.1-.13-.11-.13-.1-.12-.1-.13-.12-.11-.1-.12-.1-.13-.1-.12-.1-.13-.1-.12-.09-.14-.1-.13-.1-.12-.1-.13-.08-.14-.1-.12-.09-.13-.1-.14-.08-.12-.09-.14-.08-.14-.11-.13-.08-.14-.09-.14-.08-.13-.07-.13-.09-.14-.09-.14-.08-.14-.07-.14-.09-.15-.07-.14-.09-.14-.07-.14-.07-.15-.09-.14-.07-.15-.07-.14-.07-.16-.07-.14-.07-.15-.06-.15-.07-.14-.07-.15-.06-.16-.07-.15-.06-.15-.06-.16L131,425l-.05-.16-.06-.15-.06-.15-.06-.17,0-.15-.05-.17,0-.15-.06-.17,0-.17-.06-.15,0-.17,0-.17-.05-.16-.05-.17,0-.17,0-.16-.05-.18,0-.17-.05-.17,0-.18h-1.16l-.67,0h-4v-6.35h-7.79v30.79l7.78,0ZM111.5,433.84h0l-.39.14-.37.14-.39.13-.38.14-.39.12-.38.13-.39.12-.2.06-.2.07-.19.05-.2.06-.2.05-.18.06-.2.06-.2.05-.2.06-.2.05-.21.06-.2.05-.2.05-.2.05-.2,0-.2.06-.2,0-.2.06-.21,0-.2,0-.2,0-.22,0-.2,0L104,436l-.2,0-.22,0-.21,0-.2,0-.22,0-.21,0-.21,0-.22,0-.21,0-.22,0-.21,0-.22,0-.21,0-.23,0-.21,0-.23,0-.22,0-.23,0-.21,0-.23,0-.23,0-.23,0-.23,0h-.23l-.22,0H98.3v-9.58l12.08.06v-6.05l-12.08,0v-6H90.72l0,5.5H78.62v6h12v11.2H76.54v6.44h0l.56,0h.55l.55,0h6.06l.56,0,.54,0h.56l.54,0H87l.56,0,.54,0,.56,0,.54,0,.54,0,.55,0,.56-.06.54,0,.54-.05.56-.06.54-.06.55,0,.54-.07.54-.06.55-.07.56-.08.27,0,.27,0,.27,0,.27,0,.27,0,.28-.05.27,0,.27,0,.27,0,.27-.06.27,0,.28,0,.27-.06.27,0,.27-.05.27-.06.27,0,.28-.06.27-.05.27-.06.27,0,.27-.06.28-.06.27-.05.27-.06.26-.07.27-.05.27-.07.27-.06.27-.07.27-.05.28-.07.27-.07.27-.07.27-.07.27-.07.26-.07.27-.07.27-.07.28-.07.27-.08.27-.07.27-.09.26-.07.27-.08.27-.08.27-.09.28-.08.27-.08.26-.09.27-.08.27-.08.27-.09.26-.1.27-.08.27-.1.27-.08.27-.1h0v-2.94h0v-1.23l0-1.7Zm10.7,20.62h9l0,0h.07l0,0h.06v0h0l0,0h0v0l0,0h0v0l0,0v.08l0,0v11.28h0v.1l0,0v.09l0,0h0v0l0,0h0v0h0l0,0h0l0,0h0l0,0h-9.26l0,0h0v0h0l0,0h0v0h-.05v-.05h0v0l0,0v0l0,0v-.09l0,0h0V454.92l0,0v-.1l0,0v0l0,0v-.05h0v0l0,0h0l0,0h0l0,0H122v0h.08l0,0h.08Zm-17.11.12h9.15l0,0h0v0h.06l0,0v0h0v0h0v0l0,0h0v0h0v.06h0V455h0v11.21h0v.09h0l0,0h0v0h0v0l0,0h0v0h0v0h0v0h0l0,0h-.06l0,0H105l0,0h-.05l0,0h0v0h0l0,0h0l0,0h0v0l0,0h0l0,0h0v0h0v-.09h0V455.05h0V455h0v0l0,0h0v0h0v0l0,0h0v0h0l0,0v0h.07l0,0h0v0h.2Zm-17.66,0h9.15l0,0h0l0,0h.06v0l0,0h0v0h0v.05h0v0h0l0,0v0h0V455h0v11.21h0v.09h0v0h0l0,0h0v0l0,0h0l0,0h0l0,0h0v0h0v0h-.07l0,0H87.3l0,0h-.06l0,0h0v0h0v0h0l0,0h0l0,0v0h0v0h0v0h0l0,0v-.06h0V455.05h0V455h0l0,0v0h0v0h0l0,0v0h0v0h0v0l0,0h.06v0h0l0,0h.2Z"/><path class="cls-1" d="M221,450.45v-5.3H201.84v-4l19.14.1-.06-4.41-19.13,0v-4.11l19.19.06-.1-5.27-19,0v-3.65l19-.05v-4.62l-19.81,0L199.25,416h-8l1,3-19.62-.1h0v3l0,.32v.64l0,.32v.67l20.75-.06.1,3.8H173.2l0,5.27,20.11-.06v4.07l-20.14.07.07,4.3h20.07l0,3.84H173.24v5.36Zm-53.19,2V426.06h0l.11-.13.13-.12.12-.14.11-.13.12-.14.11-.14.1-.13.12-.14.1-.14.1-.16.1-.14.1-.15.1-.15.08-.16.1-.15.09-.15.08-.15.09-.16.09-.16.08-.16.09-.17.07-.16.08-.17.08-.17.07-.16.08-.17.07-.17.08-.16.05-.19.07-.16.08-.18.05-.18.07-.19.06-.18.06-.18.07-.18.06-.18.06-.18.05-.2.06-.18.06-.19,0-.18.06-.2,0-.19.05-.2.05-.19,0-.2.05-.19,0-.2,0-.19,0-.2.06-.21.09-.4.08-.4.09-.41.08-.42.08-.4.08-.42h-8.12l-.32,1.17-.15.57-.16.57-.09.28-.07.28-.09.27-.07.27-.08.28-.09.27-.07.26-.09.27-.08.26-.09.27-.1.25-.08.26-.1.25-.09.25-.1.25-.1.25-.1.25-.06.13,0,.11-.06.13,0,.12-.06.11-.06.13-.06.12-.05.12-.07.12-.06.11-.06.11-.06.13-.07.11-.05.11-.08.13-.05.11-.07.11-.06.11-.07.11-.08.11-.07.11-.07.12-.07.11-.07.11-.09.11-.07.11-.07.11-.09.1-.07.11-.08.11-.09.1-.08.11-.09.11-.09.1-.08.11-.09.1-.08.1-.1.11-.09.1-.1.09-.09.12-.1.09-.1.1-.1.1-.1.1-.1.09-.11.1-.1.1-.11.1-.11.09-.11.1-.11.1-.12.08-.11.1-.12.1-.13.08-.11.1-.13.09-.13.09-.11.1-.13.08-.14.08-.13.1-.13.08-.14.09-.13.09-.15.09-.14.08-.14.09-.15.08-.15.08-.15.09-.15.08-.15.08-.15.09-.16.08-.16.08-.17.07v5.14H155l.2,0h.54l.17,0h.17l.16,0,.16,0,.15,0,.15,0,.14,0,.14,0H157l.07,0,0,0h.15l.05,0,.06,0h.07l.06,0h.06l0,0,.06,0h.06l.06,0,0,0,.06,0H158l0,0,.05,0,0,0,0,0,0,0,.06,0,0,0,.05,0,0,0,0,0,0,0,0,0,0,0,0,0,0,0,0,0,0,0h0l0,5v12.85l0,1.12Zm25.5,23-.06-14.34,1.72,0h0l.16.21.14.19.16.21.15.2.16.19.14.2.16.19.16.2.16.19.15.2.18.18.15.19.16.18.16.2.17.18.16.18.15.18.18.18.15.19.17.18.16.16.17.18.17.17.16.18.17.17.18.17.17.16.17.17.17.17.17.16.17.17.18.16.18.16.17.16.17.16.18.16.18.15.17.15.19.16.19.13.17.16.18.15.19.14.17.15.19.14.18.14.19.14.18.14.19.14.2.14.19.12.18.14.19.13.2.12.18.14.2.13.19.12.2.12.2.12.19.13.2.11.2.12.2.11.2.12.2.11.2.11.21.11.2.11.2.11.22.1.2.11.21.1.2.1.22.09.21.1.2.1.22.1.21.08.22.1.21.08.21.08.22.1.23.09.21.08.22.07.23.08.21.09.23.06.23.07.21.07.23.09.23,0,.23.07.23.07.23.07.23.06.24.05.23.07.23.06.24,0,.23.06.24,0,.24.06.23,0,.25.06.24,0,.24,0,.25,0,.24,0,.26,0,.24,0,.24,0,.26,0,.24,0,.26,0,.24,0,.26,0,.26,0h.26l.25,0,.26,0h.52l.27,0h.53l.25,0H221v-4.68h0l-.28,0-.25-.06-.27,0-.28-.06-.25-.05-.28-.06-.25-.05-.27-.06-.26-.06-.27-.05-.26-.07-.27-.07-.26-.07-.26-.07-.27-.07-.26-.07-.25-.08-.26-.07-.26-.09-.26-.08-.25-.1-.26-.08L215,469l-.13,0-.13-.06-.13,0-.11,0-.13-.06-.13-.05-.13-.05-.12,0-.12-.06-.13-.05-.13-.06-.11-.07-.13-.05-.13-.06-.11-.06-.13-.07-.13-.05-.11-.07-.13-.07-.12-.06-.13-.07-.11-.07-.13-.06-.11-.07-.12-.07-.13-.07-.11-.07-.12-.09-.12-.07-.12-.08-.11-.07-.12-.08-.11-.09-.12-.07-.13-.08-.11-.08-.11-.09-.12-.09-.11-.09-.12-.08-.11-.1-.1-.08-.12-.1-.11-.1-.12-.08-.11-.1-.1-.1-.11-.09-.12-.11-.1-.1-.11-.1-.1-.11-.12-.1-.1-.11-.11-.11-.1-.11-.12-.11-.1-.12-.1-.11-.11-.11-.1-.12-.1-.12-.1-.12-.1-.13-.1-.11-.1-.12-.1-.13-.1-.14-.1-.12L207,463l-.1-.14-.09-.14-.1-.12-.1-.14-.08-.14-.1-.14-.1-.15-.09-.14-.1-.14-.09-.15-.08-.16-.1-.15h1l.48,0h2.36l.47,0h2.35l.93,0h3.76l.47,0h1l.23,0h.49l.22,0H220l.24,0h.23l.25,0H221l-.1-5.25-27.49,0-.1-2.9h-8.12l0,2.61H157.14l0,5.19,14.8-.05h0l-.23.28-.23.28-.23.26-.23.26-.23.27-.22.25-.23.25-.23.25-.23.24-.23.23-.24.24-.23.24-.23.22-.23.22-.23.21-.23.23-.23.2-.22.21-.23.2-.25.19-.23.2-.22.18-.23.19-.12.09-.11.09-.12.09-.11.08-.13.09-.11.08-.12.1-.11.07-.12.08-.11.08-.12.09-.11.08-.11.07-.12.08-.13.07-.11.07-.12.09-.11.07-.12.07-.11.07-.11.06-.12.07-.13.07-.11.07-.12.06-.11.07-.11.05-.12.07-.11.06-.12.07-.13.06-.11.05-.12.06-.11.05-.11.06-.12,0-.11.05-.13.05-.12.06-.11,0-.12,0-.11.05-.11.05-.13,0-.12,0-.11,0-.12,0-.11,0-.11,0-.13,0-.12,0-.11,0-.12.05-.11,0-.13,0-.11,0-.12,0-.11,0-.12,0-.11,0-.13,0-.12,0-.11,0-.11,0h-.12l-.13,0h-.11l-.12,0h-.11l-.13,0-.11,0h-.23l-.12,0h-.35l-.12,0h-.36l-.11,0v4.77h0l.3,0,.3,0,.3-.05.3-.05.29-.06.3,0,.28-.06.3,0,.29-.06.29-.05.28-.06.29-.05.28-.06.28-.07.28-.05.29-.06.27-.07.27-.06.27-.07.27-.07.28-.05.27-.07.27-.07.26-.07.27-.07.26-.07.25-.07.28-.07.25-.07.26-.08.24-.07.26-.08.26-.07.24-.09.26-.07.24-.08.24-.08.25-.09.24-.08.24-.08.25-.09.23-.08.24-.09.23-.08.23-.08.24-.1.23-.08.23-.1.23-.08.21-.1.23-.1.23-.08.21-.1.22-.1.21-.1.23-.09.22-.1.2-.1.21-.11.22-.1.2-.09.21-.12.2-.09.2-.11.2-.1.2-.11.2-.11.2-.12.2-.09.19-.12.2-.11.18-.12.19-.11.2-.11.19-.12.17-.12.18-.11.19-.11.19-.13.17-.12.17-.12.18-.12.18-.13.17-.12.17-.13.17-.12.16-.13.17-.12.16-.13.17-.12.16-.14.15-.13.16-.12.16-.14.16-.14.15-.13.15-.14.15-.14.15-.14.15-.13.15-.14.14-.14.14-.14.15-.14.12-.14.15-.15.13-.14.14-.14.13-.16.13-.14.13-.15.12-.15.13-.15.13-.14.13-.16.11-.15.13-.15.12-.16.11-.16.12-.16.11-.15.12-.17.11-.15.11-.17.1-.15.12-.17.1-.15.1-.17h.11l.1,0h.2l.2-.05h.2l.09,0h.44l0,0h.12l0,0h0l0,0h0l0,0,0,0h0l0,0,0,0,0,0,0,0v0l0,0v0l0,0v.06l0,.05v.12l0,.05V462l0,.07v.5l0,.1v12.91h0Z"/><path class="cls-1" d="M74.45,375.58V332.25l16-.12L124,361.25l0-29.37,10.79.05-.12,45.52S122,380,104.72,363.82L85.34,347.74l-.08,27.84Z"/><path class="cls-1" d="M143,365.68l2.39,9.09s25.84,5.24,40.32-1c0,0,13.16-5.36,7.53-16,0,0-3.23-5.59-13.28-7.92,0,0-9.09-2.68-13.52-3.73,0,0-7.65-3.61-.12-8a19.83,19.83,0,0,1,9.82-.47s8.49,1.28,11.6,3v-7.22s-18.54-4.31-31.94-.94c0,0-12,2.45-12.09,12.58,0,0-.24,6.53,11.25,10.37,0,0,16.63,4,18.66,6.64,0,0,7.78,6.54-7.18,8.74h-.08l-12.12-.25,12.2.24Z"/><path class="cls-1" d="M289.94,342.27l-.24-9.2s-21.77-3.15-36.6,1.05c0,0-16.75,2.79-20.22,14.09,0,0-3.35,8.27,3.35,17.7,0,0,10.88,17.82,59,10.49V354.62H278.1l.24,16.77s-19.74,1.28-26-12.12c0,0-4.91-11.53,8-18.4,0,0,8-4.89,24.53-.12l3.83,1.05Z"/><path class="cls-1" d="M215.64,135.83a5.86,5.86,0,1,1-6,5.86A5.95,5.95,0,0,1,215.64,135.83Z"/><path class="cls-1" d="M225.54,145.47a5.86,5.86,0,1,1-6,5.86A5.94,5.94,0,0,1,225.54,145.47Z"/><path class="cls-1" d="M235.74,155.4a5.86,5.86,0,1,1-6,5.86A5.93,5.93,0,0,1,235.74,155.4Z"/><path class="cls-1" d="M245.71,165.11a5.86,5.86,0,1,1-6,5.86A5.94,5.94,0,0,1,245.71,165.11Z"/><path class="cls-1" d="M255.71,174.84a5.86,5.86,0,1,1-6,5.86A5.95,5.95,0,0,1,255.71,174.84Z"/><path class="cls-1" d="M264.79,166.79a5.07,5.07,0,1,1-5.21,5.07A5.14,5.14,0,0,1,264.79,166.79Z"/><path class="cls-1" d="M254.79,157.06a5.07,5.07,0,1,1-5.21,5.07A5.14,5.14,0,0,1,254.79,157.06Z"/><path class="cls-1" d="M244.82,147.35a5.07,5.07,0,1,1-5.21,5.07A5.14,5.14,0,0,1,244.82,147.35Z"/><path class="cls-1" d="M234.62,137.43a5.07,5.07,0,1,1-5.2,5.06A5.13,5.13,0,0,1,234.62,137.43Z"/><path class="cls-1" d="M224.72,127.78a5.07,5.07,0,1,1-5.2,5.07A5.14,5.14,0,0,1,224.72,127.78Z"/><path class="cls-1" d="M233.39,119.78a4.63,4.63,0,1,1-4.76,4.63A4.69,4.69,0,0,1,233.39,119.78Z"/><path class="cls-1" d="M243.29,129.42a4.64,4.64,0,1,1-4.76,4.63A4.7,4.7,0,0,1,243.29,129.42Z"/><ellipse class="cls-2" cx="253.48" cy="143.98" rx="4.76" ry="4.63"/><path class="cls-1" d="M263.46,149.06a4.63,4.63,0,1,1-4.76,4.63A4.69,4.69,0,0,1,263.46,149.06Z"/><path class="cls-1" d="M273.46,158.79a4.64,4.64,0,1,1-4.76,4.63A4.7,4.7,0,0,1,273.46,158.79Z"/><path class="cls-1" d="M281,152.17a3.9,3.9,0,1,1-4,3.9A4,4,0,0,1,281,152.17Z"/><path class="cls-1" d="M271,142.43a3.91,3.91,0,1,1-4,3.9A4,4,0,0,1,271,142.43Z"/><path class="cls-1" d="M261,132.72a3.9,3.9,0,1,1-4,3.9A4,4,0,0,1,261,132.72Z"/><path class="cls-1" d="M250.84,122.8a3.9,3.9,0,1,1-4,3.9A3.95,3.95,0,0,1,250.84,122.8Z"/><path class="cls-1" d="M240.94,113.16a3.9,3.9,0,1,1-4,3.9A4,4,0,0,1,240.94,113.16Z"/><path class="cls-1" d="M247.65,107.42a3.11,3.11,0,1,1-3.2,3.11A3.16,3.16,0,0,1,247.65,107.42Z"/><path class="cls-1" d="M257.55,117.06a3.11,3.11,0,1,1-3.2,3.11A3.15,3.15,0,0,1,257.55,117.06Z"/><path class="cls-1" d="M267.74,127a3.12,3.12,0,1,1-3.19,3.11A3.16,3.16,0,0,1,267.74,127Z"/><path class="cls-1" d="M277.72,136.69a3.12,3.12,0,1,1-3.2,3.12A3.16,3.16,0,0,1,277.72,136.69Z"/><path class="cls-1" d="M287.72,146.43a3.11,3.11,0,1,1-3.2,3.11A3.15,3.15,0,0,1,287.72,146.43Z"/><path class="cls-1" d="M294,140.91a2.55,2.55,0,1,1-2.61,2.55A2.58,2.58,0,0,1,294,140.91Z"/><path class="cls-1" d="M283.94,131.16a2.55,2.55,0,1,1-2.61,2.55A2.58,2.58,0,0,1,283.94,131.16Z"/><path class="cls-1" d="M273.93,121.41a2.55,2.55,0,1,1-2.62,2.54A2.58,2.58,0,0,1,273.93,121.41Z"/><path class="cls-1" d="M263.91,111.65a2.55,2.55,0,1,1-2.61,2.55A2.6,2.6,0,0,1,263.91,111.65Z"/><path class="cls-1" d="M253.89,101.9a2.55,2.55,0,1,1-2.61,2.55A2.58,2.58,0,0,1,253.89,101.9Z"/><path class="cls-1" d="M241.37,185l.25-.1a.45.45,0,0,0,.09-.1l.13,0a7.65,7.65,0,0,1,7.8,1.74,7.18,7.18,0,0,1,.81,9.44c.07,0,.14,0,.23-.06L153.51,290.6c-4,3.91-7.12-.31-7.12-.31L1.87,149.59c-4-2.72-.31-6.33-.31-6.33l144.83-141C149.18-2,153.2,1,153.2,1L247,92.64,195.6,142.05,150.42,97.76l-49.83,48.51,49.52,48.51,49.2-48.21,1,0a7.7,7.7,0,0,1,9.31,1,7.21,7.21,0,0,1,1.59,8.09,7.67,7.67,0,0,1,8.31,1.55,7.18,7.18,0,0,1,1.42,8.44s0-.05.08-.13h.56a7.68,7.68,0,0,1,8.13,1.62,7.2,7.2,0,0,1,1.53,8.22,7.68,7.68,0,0,1,8.44,1.49,7.19,7.19,0,0,1,1.61,8.07A.27.27,0,0,0,241.37,185Z"/><path class="cls-1" d="M58.78,331.9s-35.17-7.8-53.71,9.9c0,0-12.8,14.1,7.17,28.54,0,0,14.48,10.37,51.45,4.78L67,366.5s-24.29,8.27-38.17-.82c0,0-17.46-11.3-2.75-24,0,0,6.94-8.51,32.54-1.17l.12-5.71Z"/><rect class="cls-2" x="208.06" y="331.93" width="13.17" height="46.22"/></g></g></svg>